<?xml version="1.0" standalone="no"?>
<!DOCTYPE svg PUBLIC "-//W3C//DTD SVG 20010904//EN"
 "http://www.w3.org/TR/2001/REC-SVG-20010904/DTD/svg10.dtd">
<svg version="1.0" xmlns="http://www.w3.org/2000/svg"
 width="640.000000pt" height="160.000000pt" viewBox="0 0 640.000000 160.000000"
 preserveAspectRatio="xMidYMid meet">

<g transform="translate(0.000000,160.000000) scale(0.100000,-0.100000)"
fill="#000000" stroke="none">
<path d="M681 1264 c-236 -63 -390 -297 -354 -534 43 -278 320 -464 588 -395
239 63 395 296 358 535 -43 279 -324 466 -592 394z m269 -265 c47 -11 110 -32
140 -47 47 -24 55 -32 55 -56 0 -47 -24 -53 -92 -23 -33 14 -90 34 -129 43
-86 21 -265 24 -357 5 -76 -15 -97 -7 -97 36 0 18 9 28 35 39 89 37 293 38
445 3z m-20 -168 c123 -40 177 -86 136 -120 -12 -10 -22 -8 -53 7 -87 45 -183
66 -293 66 -58 0 -123 -5 -144 -12 -26 -7 -45 -8 -57 -1 -21 11 -25 44 -7 55
62 39 304 41 418 5z m-40 -152 c81 -23 130 -53 130 -78 0 -27 -20 -31 -60 -11
-93 47 -249 64 -370 40 -47 -9 -70 0 -70 26 0 21 36 33 120 42 96 11 169 5
250 -19z"/>
<path d="M3402 1268 c-17 -17 -17 -919 0 -936 17 -17 64 -15 82 4 14 14 16 70
16 464 0 394 -2 450 -16 464 -18 19 -65 21 -82 4z"/>
<path d="M3802 1268 c-17 -17 -17 -919 0 -936 15 -15 61 -15 76 0 17 17 17
919 0 936 -15 15 -61 15 -76 0z"/>
<path d="M4792 1268 c-17 -17 -17 -919 0 -936 20 -20 76 -15 88 7 6 13 10 176
10 461 0 285 -4 448 -10 461 -12 22 -68 27 -88 7z"/>
<path d="M2005 1207 c-3 -6 -4 -194 -3 -417 l3 -405 39 -3 c21 -2 43 1 48 6
10 10 13 806 3 822 -9 15 -85 12 -90 -3z"/>
<path d="M2205 1208 c-3 -7 -4 -195 -3 -418 l3 -405 45 0 45 0 0 415 0 415
-43 3 c-28 2 -44 -1 -47 -10z"/>
<path d="M2600 1201 c-6 -13 -10 -157 -10 -401 0 -244 4 -388 10 -401 14 -25
85 -27 94 -3 8 20 8 788 0 808 -9 24 -80 22 -94 -3z"/>
<path d="M4190 1201 c-6 -13 -10 -157 -10 -401 0 -244 4 -388 10 -401 14 -25
85 -27 94 -3 8 20 8 788 0 808 -9 24 -80 22 -94 -3z"/>
<path d="M5585 1211 c-10 -17 -7 -813 3 -823 5 -5 27 -8 48 -6 l39 3 0 415 0
415 -42 3 c-22 2 -44 -2 -48 -7z"/>
<path d="M3006 1154 c-14 -13 -16 -60 -16 -354 0 -367 0 -370 55 -370 55 0 55
3 55 370 0 367 0 370 -55 370 -13 0 -31 -7 -39 -16z"/>
<path d="M4001 1156 c-8 -10 -12 -113 -12 -356 0 -243 4 -346 12 -356 14 -17
61 -18 77 -2 17 17 17 699 0 716 -16 16 -63 15 -77 -2z"/>
<path d="M1818 1049 c-16 -9 -18 -32 -18 -249 0 -226 1 -240 19 -250 29 -15
49 -12 71 10 19 19 20 33 20 240 0 207 -1 221 -20 240 -22 22 -46 25 -72 9z"/>
<path d="M5398 1049 c-16 -9 -18 -32 -18 -250 l0 -239 25 -12 c19 -8 31 -8 50
0 l25 12 0 239 c0 227 -1 241 -19 251 -24 12 -41 12 -63 -1z"/>
<path d="M5790 1040 c-19 -19 -20 -33 -20 -240 0 -207 1 -221 20 -240 22 -22
42 -25 71 -10 18 10 19 24 19 250 0 226 -1 240 -19 250 -29 15 -49 12 -71 -10z"/>
<path d="M2413 993 c-10 -3 -13 -52 -13 -193 0 -202 -1 -200 54 -200 43 0 46
14 46 200 0 124 -4 180 -12 188 -12 12 -52 15 -75 5z"/>
<path d="M2800 981 c-6 -11 -10 -89 -10 -181 0 -92 4 -170 10 -181 12 -22 68
-27 88 -7 8 8 12 64 12 188 0 124 -4 180 -12 188 -20 20 -76 15 -88 -7z"/>
<path d="M3602 988 c-17 -17 -17 -359 0 -376 13 -13 47 -16 72 -6 14 5 16 32
16 194 0 162 -2 189 -16 194 -25 10 -59 7 -72 -6z"/>
<path d="M4390 981 c-6 -11 -10 -89 -10 -181 0 -92 4 -170 10 -181 12 -22 68
-27 88 -7 8 8 12 64 12 188 0 124 -4 180 -12 188 -20 20 -76 15 -88 -7z"/>
<path d="M5192 988 c-8 -8 -12 -64 -12 -188 0 -186 3 -200 46 -200 55 0 54 -2
54 200 0 162 -2 189 -16 194 -25 10 -59 7 -72 -6z"/>
<path d="M4592 928 c-17 -17 -17 -239 0 -256 7 -7 26 -12 43 -12 50 0 55 13
55 140 0 77 -4 120 -12 128 -16 16 -70 16 -86 0z"/>
<path d="M4986 924 c-3 -9 -6 -64 -6 -124 0 -60 3 -115 6 -124 9 -24 80 -22
94 3 5 11 10 65 10 121 0 56 -5 110 -10 121 -14 25 -85 27 -94 3z"/>
<path d="M1618 879 c-27 -15 -26 -144 1 -159 57 -30 91 -1 91 80 0 40 -5 64
-16 74 -18 18 -51 20 -76 5z"/>
<path d="M3208 879 c-27 -15 -26 -144 1 -159 57 -30 91 -1 91 80 0 40 -5 64
-16 74 -18 18 -51 20 -76 5z"/>
<path d="M5986 874 c-11 -10 -16 -34 -16 -74 0 -81 34 -110 91 -80 16 9 19 22
19 80 0 58 -3 71 -19 80 -28 14 -57 12 -75 -6z"/>
</g>
</svg>
